{"title":"Happy Bhag Jayegi {2016} 1/3 DesiScr Rip x264 AC3 {Team DUS 8th","uid":15605614,"size":1551359653,"categoryP":"video","categoryS":"movies","magnet":"?xt=urn:btih:e3afb5338fb99c027d8e14cab1ade3255792d507&amp;dn=Happy+Bhag+Jayegi+%7B2016%7D+1%2F3+DesiScr+Rip+x264+AC3+%7BTeam+DUS+8th+&amp;tr=udp%3A%2F%2Ftracker.leechers-paradise.org%3A6969&amp;tr=udp%3A%2F%2Fzer0day.ch%3A1337&amp;tr=udp%3A%2F%2Fopen.demonii.com%3A1337&amp;tr=udp%3A%2F%2Ftracker.coppersurfer.tk%3A6969&amp;tr=udp%3A%2F%2Fexodus.desync.com%3A6969","seeders":82,"leechers":20,"uploader":"makintos13","files":1,"time":1471718250,"description":"Happy Bhag Jayegi {2016} 1/3 DesiScr Rip x264 AC3 {Team DUS 8th Anniversary} - jnmjy\r\n\r\nScreens:\r\n \nhttps://imgmak.com/aGM\r\n \nhttps://imgmak.com/aGO\r\n \nhttps://imgmak.com/aGP\r\n \nhttps://imgmak.com/aGY\r\n\r\n \nhttps://imgmak.com/aG0\r\n \nhttps://imgmak.com/aGA\r\n\r\n \nhttps://imgmak.com/aGD\r\n \nhttps://imgmak.com/aGf\r\n \nhttps://imgmak.com/aGh\r\n\r\n \nhttps://imgmak.com/aGl\r\n \nhttps://imgmak.com/aGV\r\n \nhttps://imgmak.com/aGe\r\n \nhttps://imgmak.com/aGg\r\n \nhttps://imgmak.com/aGo\r\n \nhttps://imgmak.com/aGN\r\n\r\nYear.............: 2016\r\nSource: junaid\r\nRipper...........: jnmjy\r\n\r\nGeneral\r\nFormat                                   : Matroska\r\nFormat version                           : Version 2\r\nFile size                                : 1.44 GiB\r\nDuration                                 : 2h 5mn\r\nOverall bit rate                         : 1 647 Kbps\r\nEncoded date                             : UTC 2016-08-20 03:20:37\r\nWriting application                      : mkvmerge v8.5.2 ('Crosses') 32bit\r\nWriting library                          : libebml v1.3.3 + libmatroska v1.4.4\r\nDURATION                                 : 02:05:33.536000000\r\nNUMBER_OF_FRAMES                         : 235423\r\nNUMBER_OF_BYTES                          : 180804864\r\n_STATISTICS_WRITING_APP                  : mkvmerge v8.5.2 ('Crosses') 32bit\r\n_STATISTICS_WRITING_DATE_UTC             : 2016-08-20 03:20:37\r\n_STATISTICS_TAGS                         : BPS DURATION NUMBER_OF_FRAMES NUMBER_OF_BYTES\r\n\r\nVideo\r\nID                                       : 1\r\nFormat                                   : AVC\r\nFormat/Info                              : Advanced Video Codec\r\nFormat profile                           :   \r\nFormat settings, CABAC                   : Yes\r\nFormat settings, ReFrames                : 4 frames\r\nCodec ID                                 : V_MPEG4/ISO/AVC\r\nDuration                                 : 2h 5mn\r\nBit rate                                 : 1 457 Kbps\r\nWidth                                    : 640 pixels\r\nHeight                                   : 272 pixels\r\nDisplay aspect ratio                     : 2.35:1\r\nFrame rate mode                          : Constant\r\nFrame rate                               : 23.976 fps\r\nColor space                              : YUV\r\nChroma subsampling                       : 4:2:0\r\nBit depth                                : 8 bits\r\nScan type                                : Progressive\r\nBits/(Pixel*Frame)                       : 0.349\r\nStream size                              : 1.25 GiB (86%)\r\nWriting library                          : x264 core 148 r2638 7599210\r\nDefault                                  : Yes\r\nForced                                   : No\r\n\r\nAudio\r\nID                                       : 2\r\nFormat                                   : AC-3\r\nFormat/Info                              : Audio Coding 3\r\nMode extension                           : CM (complete main)\r\nFormat settings, Endianness              : Big\r\nCodec ID                                 : A_AC3\r\nDuration                                 : 2h 5mn\r\nBit rate mode                            : Constant\r\nBit rate                                 : 192 Kbps\r\nChannel(s)                               : 2 channels\r\nChannel positions                        : Front: L R\r\nSampling rate                            : 48.0 KHz\r\nCompression mode                         : Lossy\r\nStream size                              : 172 MiB (12%)\r\nDefault                                  : Yes\r\nForced                                   : No","torrent":{"xt":"urn:btih:e3afb5338fb99c027d8e14cab1ade3255792d507","amp;dn":"Happy+Bhag+Jayegi+%7B2016%7D+1%2F3+DesiScr+Rip+x264+AC3+%7BTeam+DUS+8th+","amp;tr":["udp%3A%2F%2Ftracker.leechers-paradise.org%3A6969","udp%3A%2F%2Fzer0day.ch%3A1337","udp%3A%2F%2Fopen.demonii.com%3A1337","udp%3A%2F%2Ftracker.coppersurfer.tk%3A6969","udp%3A%2F%2Fexodus.desync.com%3A6969"],"infoHash":"e3afb5338fb99c027d8e14cab1ade3255792d507","infoHashBuffer":{"type":"Buffer","data":[227,175,181,51,143,185,156,2,125,142,20,202,177,173,227,37,87,146,213,7]},"announce":[],"urlList":[]}}